<svg preserveAspectRatio="none" width="100%" height="100%" overflow="visible" style="display: block;" viewBox="0 0 130 22" fill="none" xmlns="http://www.w3.org/2000/svg">
<g id="patterson-logo-white 3">
<g id="Group 2344">
<path id="Vector" d="M30.6319 12.967V15.9283H27.7417V7.7662H31.7205C33.1575 7.7662 33.9521 7.94893 34.6216 8.41279C35.2748 8.87666 35.6558 9.58883 35.6558 10.3713C35.6558 11.9362 34.3005 12.967 32.2539 12.967H30.6374H30.6319ZM30.5884 11.2147H31.5518C32.4172 11.2147 32.8091 10.971 32.8091 10.4088C32.8091 9.8934 32.4335 9.63569 31.6389 9.63569H30.5938V11.2147H30.5884Z" fill="var(--fill-0, white)"/>
<path id="Vector_2" d="M40.8158 15.933L40.2987 14.3165H37.8004L37.2398 15.933H34.9211L37.7949 7.7662H40.8103L43.7278 15.933H40.8103H40.8158ZM38.2902 12.5406H39.7979L39.0468 10.1792L38.2957 12.5406H38.2902Z" fill="var(--fill-0, white)"/>
<path id="Vector_3" d="M47.8473 9.73879V15.933H45.1421V9.73879H43.2153V7.7662H49.7741V9.73879H47.8473Z" fill="var(--fill-0, white)"/>
<path id="Vector_4" d="M55.4514 9.73879V15.933H52.7463V9.73879H50.8195V7.7662H57.3782V9.73879H55.4514Z" fill="var(--fill-0, white)"/>
<path id="Vector_5" d="M65.3197 13.9838V15.9283H58.3309V7.7662H65.3197V9.64972H61.1341V10.8352H64.525V12.6484H61.1341V13.9838H65.3197Z" fill="var(--fill-0, white)"/>
<path id="Vector_6" d="M74.6216 15.933H71.4539L70.0986 12.8124H69.2058V15.933H66.3159V7.7662H71.1982C73.3213 7.7662 74.5728 8.69857 74.5728 10.2401C74.5728 11.0835 74.1971 11.7348 73.4407 12.1236C73.2994 12.208 73.1362 12.2829 72.9399 12.3673L74.6166 15.9283L74.6216 15.933ZM69.2058 11.06H70.4199C71.1707 11.06 71.6065 10.779 71.6065 10.287C71.6065 9.79499 71.2039 9.50452 70.5181 9.50452H69.2058V11.06Z" fill="var(--fill-0, white)"/>
<path id="Vector_7" d="M74.8722 13.5669L77.5229 13.1499C77.8167 13.8714 78.29 14.1432 79.2371 14.1432C79.9342 14.1432 80.3099 13.9605 80.3099 13.6419C80.3099 13.2763 80.0429 13.117 79.1777 12.9671C78.018 12.7703 77.251 12.5642 76.6358 12.283C75.8137 11.9035 75.3405 11.182 75.3405 10.3386C75.3405 8.71275 76.859 7.64446 79.1777 7.64446C81.0882 7.64446 82.356 8.31917 82.9606 9.64982L80.6037 10.273C80.3261 9.69667 79.8798 9.46709 79.1121 9.46709C78.5132 9.46709 78.1762 9.64982 78.1762 9.96842C78.1762 10.2871 78.3825 10.4088 79.2102 10.5541C79.8091 10.6666 80.2717 10.7603 80.5762 10.8212C81.0663 10.9196 81.5127 11.0648 81.9047 11.2476C82.7261 11.6505 83.2162 12.4096 83.2162 13.281C83.2162 14.9444 81.5558 16.0455 79.0471 16.0455C77.6917 16.0455 76.6027 15.7128 75.8356 15.0522C75.3073 14.6117 75.1223 14.3165 74.8722 13.5575V13.5669Z" fill="var(--fill-0, white)"/>
<path id="Vector_8" d="M92.7469 11.7676C92.7469 14.3399 90.9727 16.0501 88.3221 16.0501C85.6714 16.0501 83.8859 14.3586 83.8859 11.8519C83.8859 9.34518 85.6601 7.63968 88.3489 7.63968C91.0377 7.63968 92.7469 9.26555 92.7469 11.7629V11.7676ZM89.6605 11.8659V11.6317C89.6605 10.1745 89.2417 9.49044 88.3489 9.49044C87.4562 9.49044 86.9392 10.3338 86.9392 11.9128C86.9392 13.4918 87.3856 14.19 88.3058 14.19C88.8659 14.19 89.2798 13.8948 89.4486 13.4168C89.563 13.0748 89.628 12.536 89.6555 11.8613L89.6605 11.8659Z" fill="var(--fill-0, white)"/>
<path id="Vector_9" d="M101.554 15.933H99.2245L96.6826 12.3345L96.4157 11.9081L96.1218 11.4443C96.0074 11.285 95.9424 11.1491 95.6917 10.6477L95.7736 10.9429C95.8718 11.3224 95.9149 11.6551 95.9149 11.9831V15.9376H93.5962V7.7662H96.2906L98.4681 10.7649C98.8594 11.3178 99.2189 11.8894 99.4421 12.3298C99.2895 11.5708 99.2189 10.8492 99.2189 10.1886V7.7662H101.548V15.933H101.554Z" fill="var(--fill-0, white)"/>
<path id="Vector_10" d="M105.946 11.9183V13.7924H102.501V11.9183H105.946Z" fill="var(--fill-0, white)"/>
<path id="Vector_11" d="M114.654 7.7662V13.1779C114.654 14.1197 114.387 14.7569 113.816 15.2207C113.12 15.797 112.183 16.0547 110.898 16.0547C109.614 16.0547 108.482 15.7596 107.829 15.2348C107.258 14.7803 107.007 14.1946 107.007 13.3138V7.7662H109.908V13.0186C109.908 13.8011 110.273 14.1431 111.095 14.1431C111.987 14.1431 112.406 13.7635 112.406 13.0045V7.7662H114.654Z" fill="var(--fill-0, white)"/>
<path id="Vector_12" d="M120.136 9.73879V15.933H117.43V9.73879H115.504V7.7662H122.062V9.73879H120.136Z" fill="var(--fill-0, white)"/>
<path id="Vector_13" d="M125.743 7.7662V15.933H122.869V7.7662H125.743Z" fill="var(--fill-0, white)"/>
</g>
<path id="Vector_14" d="M2.7417 14.5775C4.13298 17.9168 7.52148 20.2813 11.4917 20.2813C15.4619 20.2813 18.8504 17.9168 20.2417 14.5775H2.7417Z" fill="var(--fill-0, white)"/>
<path id="Vector_15" d="M8.20175 12.1331L10.2524 3.85902H10.2571H11.907V3.89542L13.9483 12.1285H20.0625C20.1804 11.5648 20.2417 10.9783 20.2417 10.3783C20.2464 5.5002 16.1404 1.54051 11.0774 1.54051C6.01439 1.54051 1.90837 5.5002 1.90837 10.3828C1.90837 10.9829 1.96965 11.5648 2.09222 12.1331H8.20175Z" fill="var(--fill-0, white)"/>
</g>
</svg>
