<svg viewBox="0 0 171 38" xmlns="http://www.w3.org/2000/svg">
<g>
	<path fill="currentColor" d="M0.6,0.4h9.5l22.5,37.2h-9.5L8.5,15v22.7H0.6V0.4z"/>
	<path fill="currentColor" d="M56.8,22v5.7H43.9V32h14v5.7H37.2V12.2h20.4V18H43.9V22L56.8,22L56.8,22z"/>
	<path fill="currentColor" d="M141.4,22v5.7h-12.9V32h14v5.7h-20.7V12.2h20.4V18h-13.7V22L141.4,22L141.4,22z"/>
	<path fill="currentColor" d="M75.2,29.5l-5.9,8.2h-8.8l9.7-13.2l-9-12.2H70l5.2,7.2l5.2-7.2h8.8l-8.9,12.2l9.7,13.2H81L75.2,29.5z"/>
	<path fill="currentColor" d="M116.9,0.4v6.8H104v30.5h-7.9V7.2H83.9l4.9-6.8C88.8,0.4,116.9,0.4,116.9,0.4z"/>
	<path fill="currentColor" d="M116.8,37.7H109V12.2h7.8V37.7z"/>
	<path fill="currentColor" d="M146.9,37.7V12.2h11.3c7.5,0,11.8,2.6,11.8,8.7c0,4-2.4,6.2-5,7.4l5.3,9.3h-8.2l-4.7-8.2h-2.8v8.2L146.9,37.7
		L146.9,37.7z M154.6,18v5.9h3.6c2.8,0,4.1-0.8,4.1-2.9c0-2.2-1.3-3-4.1-3H154.6z"/>
	<polygon fill="#037D3F" points="32.6,28.4 15.9,0.4 32.6,0.4 	"/>
</g>
</svg>
