<svg width="504" height="160" viewBox="0 0 504 160" fill="none" xmlns="http://www.w3.org/2000/svg">
<path d="M59.3574 33.9053H80.8574L131.778 118.095H110.278L77.2364 66.9474V118.321H59.3574V33.9053Z" fill="currentColor"/>
<path d="M186.547 82.7895V95.6895H157.353V105.421H189.037V118.321H142.189V60.6106H188.358V73.7369H157.353V82.7895H186.547Z" fill="currentColor"/>
<path d="M378.01 82.7895V95.6895H348.815V105.421H380.5V118.321H333.652V60.6106H379.821V73.7369H348.815V82.7895H378.01Z" fill="currentColor"/>
<path d="M228.188 99.7632L214.836 118.321H194.92L216.873 88.4474L196.504 60.8369H216.42L228.188 77.1317L239.957 60.8369H259.873L239.73 88.4474L261.683 118.321H241.315L228.188 99.7632Z" fill="currentColor"/>
<path d="M322.563 33.9053V49.2947H293.368V118.321H275.489V49.2947H247.879L258.968 33.9053H322.563Z" fill="currentColor"/>
<path d="M322.336 118.321H304.684V60.6106H322.336V118.321Z" fill="currentColor"/>
<path d="M390.457 118.321V60.6106H416.031C433.004 60.6106 442.736 66.4948 442.736 80.3001C442.736 89.3527 437.304 94.3316 431.42 97.0474L443.415 118.095H424.857L414.22 99.5369H407.883V118.095L390.457 118.321ZM407.883 73.7369V87.0895H416.031C422.368 87.0895 425.31 85.279 425.31 80.5264C425.31 75.5474 422.368 73.7369 416.031 73.7369H407.883Z" fill="currentColor"/>
<path d="M131.779 97.2737L93.9844 33.9053H131.779V97.2737Z" fill="#037D3F"/>
</svg>
