<svg width="504" height="160" viewBox="0 0 504 160" fill="none" xmlns="http://www.w3.org/2000/svg">
<mask id="mask0_428_477" style="mask-type:luminance" maskUnits="userSpaceOnUse" x="0" y="19" width="504" height="122">
<path d="M504 19.25H0V140.75H504V19.25Z" fill="white"/>
</mask>
<g mask="url(#mask0_428_477)">
<path fill-rule="evenodd" clip-rule="evenodd" d="M346.263 64.3181H323.079C318.82 64.3181 314.404 67.7805 313.254 72.0116L305.618 100.31C304.481 104.542 307.034 108.004 311.294 108.004H334.477C338.736 108.004 343.153 104.542 344.302 100.31L351.937 72.0116C353.075 67.7805 350.521 64.3181 346.263 64.3181ZM338.712 75.3057L333.025 96.4029C332.735 97.4607 331.621 98.3384 330.556 98.3384H320.429C319.365 98.3384 318.723 97.4728 319.001 96.4029L324.688 75.3057C324.979 74.2475 326.092 73.3701 327.156 73.3701H337.284C338.349 73.3701 338.99 74.2358 338.712 75.3057Z" fill="currentColor"/>
<path fill-rule="evenodd" clip-rule="evenodd" d="M213.912 64.3181H184.231L174.527 100.31L169.276 119.784H179.028C180.444 119.784 181.919 118.63 182.295 117.224C183.118 114.146 183.952 111.081 184.776 108.004H202.138C206.398 108.004 210.815 104.542 211.964 100.31L219.599 72.0116C220.736 67.7805 218.183 64.3181 213.923 64.3181H213.912ZM206.361 75.3057L200.674 96.4029C200.384 97.4607 199.272 98.3384 198.207 98.3384H187.376L194.105 73.3823H204.934C205.999 73.3823 206.652 74.2475 206.361 75.3175V75.3057Z" fill="currentColor"/>
<path fill-rule="evenodd" clip-rule="evenodd" d="M252.367 98.3377H233.589C230.237 98.3377 229.038 96.7029 229.935 93.3731L230.744 90.3798H257.086L260.414 78.0578C262.979 68.5248 259.869 64.3055 250.287 64.3055H239.287C229.704 64.3055 224.307 68.5248 221.743 78.0578L217.374 94.2505C214.809 103.783 217.919 108.003 227.502 108.003H252.343C252.985 105.635 253.626 103.254 254.267 100.886C254.642 99.4798 253.795 98.3259 252.38 98.3259L252.367 98.3377ZM233.988 78.3343C234.884 75.0045 236.964 73.3694 240.316 73.3694H245.337C248.689 73.3694 249.886 75.0045 248.991 78.3343L248.023 81.9167H233.008L233.976 78.3343H233.988Z" fill="currentColor"/>
<path fill-rule="evenodd" clip-rule="evenodd" d="M467.042 64.3181C461.635 64.3181 456.021 68.7178 454.568 74.0914L444.877 110.023C443.424 115.397 446.668 119.796 452.075 119.796H489.066L492.379 107.51H463.681C462.324 107.51 461.502 106.405 461.865 105.058L469.088 78.2747C469.451 76.9286 470.866 75.8227 472.223 75.8227H497.656C499.457 75.8227 501.322 74.3557 501.807 72.5767L502.448 70.1846L502.907 68.4774L504.02 64.3302H467.031L467.042 64.3181Z" fill="currentColor"/>
<path fill-rule="evenodd" clip-rule="evenodd" d="M125.704 76.6304H109.248C108.014 76.6304 107.276 75.6209 107.603 74.3945L108.728 70.2112C109.055 68.9852 110.349 67.9752 111.584 67.9752H134.017C135.65 67.9752 137.356 66.6409 137.792 65.0179L139.812 57.5044H106.852C101.928 57.5044 96.8215 61.5077 95.5024 66.4005L92.32 78.1933C91.0009 83.0857 93.9536 87.089 98.8787 87.089H115.335C116.569 87.089 117.306 88.0989 116.98 89.3249L115.564 94.5903C115.238 95.8164 113.943 96.8263 112.709 96.8263H90.275C88.6426 96.8263 86.9355 98.1606 86.5006 99.7835L84.2861 108.006H117.246C122.171 108.006 127.277 104.003 128.596 99.1101L132.262 85.5143C133.581 80.6215 130.628 76.6186 125.704 76.6186V76.6304Z" fill="currentColor"/>
<path fill-rule="evenodd" clip-rule="evenodd" d="M180.443 64.3177H170.69C169.275 64.3177 167.798 65.4715 167.422 66.878L166.491 70.3283L166.43 70.5326L166.358 70.809L166.322 70.9291L166.285 71.0495L166.237 71.2538L166.2 71.3621V71.4099L166.152 71.5425L166.128 71.6504L166.104 71.7225V71.7708L166.08 71.7947V71.8307L165.935 72.3477L165.777 72.9129L165.608 73.5258L159.437 96.3903C159.147 97.4482 158.034 98.3259 156.969 98.3259H146.841C145.776 98.3259 145.135 97.4603 145.414 96.3903L154.064 64.3055H141.735L132.031 100.297C130.894 104.529 133.446 107.991 137.705 107.991H160.888C165.148 107.991 169.564 104.529 170.714 100.297L180.418 64.3055L180.443 64.3177Z" fill="currentColor"/>
<path fill-rule="evenodd" clip-rule="evenodd" d="M289.635 73.3694H291.039C292.455 73.3694 293.93 72.2155 294.306 70.809L294.814 68.9218L295.177 67.5753L296.06 64.3055H275.648C271.389 64.3055 266.972 67.7675 265.822 71.9991L256.118 107.991H268.448L277.269 75.2932C277.559 74.235 278.673 73.3576 279.738 73.3576H289.648L289.635 73.3694Z" fill="currentColor"/>
<path fill-rule="evenodd" clip-rule="evenodd" d="M301.793 64.3181C300.377 64.3181 298.902 65.4723 298.526 66.8788C294.824 80.595 291.133 94.2991 287.43 108.015H299.76L311.546 64.3181H301.793Z" fill="currentColor"/>
<path fill-rule="evenodd" clip-rule="evenodd" d="M422.149 107.51H409.012C407.655 107.51 406.832 106.405 407.195 105.058L414.419 78.2747C414.781 76.9286 416.197 75.8227 417.553 75.8227H430.802C432.158 75.8227 432.981 76.9286 432.617 78.2747L426.251 101.873C426.011 102.774 426.132 103.027 427.1 103.267C427.996 103.496 428.842 103.784 429.665 104.132C433.148 105.659 435.931 108.352 438.062 111.249L440.663 114.771C439.84 112.535 439.733 109.879 440.493 107.054L449.386 74.0914C449.413 73.9954 449.435 73.8993 449.472 73.8027C450.732 68.5617 447.512 64.3181 442.201 64.3181H412.372C406.966 64.3181 401.351 68.7178 399.898 74.0914L390.208 110.023C388.755 115.397 391.997 119.796 397.404 119.796H414.94C419.221 119.796 422.368 122.886 424.594 125.904L434.178 138.91H451.929L434.552 115.336C431.309 110.937 427.233 107.535 422.149 107.535V107.51Z" fill="currentColor"/>
<path fill-rule="evenodd" clip-rule="evenodd" d="M355.713 72.0112L346.008 108.003H358.337L367.158 75.305C367.448 74.2471 368.562 73.3694 369.627 73.3694H380.939C382.354 73.3694 383.818 72.2155 384.207 70.809L384.715 68.9218L385.078 67.5753L385.96 64.3055H365.549C361.29 64.3055 356.873 67.7675 355.724 71.9991L355.713 72.0112Z" fill="currentColor"/>
<path d="M419.972 133.043C416.104 127.839 414.604 126.468 405.224 126.468H35.3679V117.668H53.8443L53.8928 124.725H65.7264L65.6779 116.586H62.8225L42.8697 40.6839H48.7505V26.4628V25.8617H42.1073V19.25H23.631V25.8617H16.9761V40.6839H22.8566L2.90402 116.586H0V124.725H11.8336V117.668H30.4069L30.3827 130.303H395.811C402.537 130.303 404.849 132.118 407.958 136.193C409.604 138.357 411.334 138.899 414.226 138.899H424.342L419.988 133.055L419.972 133.043ZM35.3679 114.17V96.1742L55.7925 114.17H35.3679ZM54.7759 101.644L57.0991 110.492L36.1907 92.0632H52.2956L54.7881 101.644H54.7759ZM35.3679 88.3725V71.639L49.2586 88.3725H35.3679ZM50.1418 83.7562L35.622 66.2654H45.6042L50.1418 83.7562ZM43.0512 62.5747H35.38V48.4617L43.0512 62.5747ZM35.38 40.8643V40.4676H38.9251L42.3615 53.7151L35.38 40.8643ZM27.2609 22.7121H38.5745V25.8617H27.2609V22.7121ZM20.6666 36.777V29.5522H45.0962V36.777H20.6666ZM30.3827 40.4796L23.5221 53.3544L26.8738 40.4796H30.3827ZM20.1463 66.2771H29.923L15.6088 83.684L20.1463 66.2771ZM13.4188 92.0632H29.3784L8.51827 110.852L13.4188 92.0632ZM30.3827 114.158H10.2607L30.4069 96.0182V114.158H30.3827ZM30.3827 88.3603H16.4558L30.4069 71.3864V88.3603H30.3827ZM30.3827 62.5625H22.6872L30.3827 48.1371V62.5625Z" fill="#DF181D"/>
</g>
</svg>
