<svg width="504" height="160" viewBox="0 0 504 160" fill="none" xmlns="http://www.w3.org/2000/svg">
<g clip-path="url(#clip0_366_475)">
<path fill-rule="evenodd" clip-rule="evenodd" d="M336.537 61.4314H315.745C311.926 61.4314 307.965 64.5376 306.934 68.3334L300.086 93.7205C299.066 97.5167 301.356 100.623 305.176 100.623H325.967C329.787 100.623 333.748 97.5167 334.779 93.7205L341.626 68.3334C342.646 64.5376 340.356 61.4314 336.537 61.4314ZM329.765 71.2886L324.665 90.2153C324.405 91.1643 323.406 91.9517 322.451 91.9517H313.369C312.414 91.9517 311.839 91.1752 312.088 90.2153L317.188 71.2886C317.449 70.3393 318.447 69.5522 319.402 69.5522H328.485C329.44 69.5522 330.015 70.3288 329.765 71.2886Z" fill="currentColor"/>
<path fill-rule="evenodd" clip-rule="evenodd" d="M217.842 61.4314H191.223L182.52 93.7205L177.811 111.191H186.557C187.827 111.191 189.15 110.156 189.487 108.894C190.225 106.133 190.973 103.383 191.712 100.623H207.283C211.103 100.623 215.064 97.5167 216.095 93.7205L222.942 68.3334C223.962 64.5376 221.672 61.4314 217.852 61.4314H217.842ZM211.07 71.2886L205.97 90.2153C205.71 91.1643 204.712 91.9517 203.757 91.9517H194.044L200.078 69.5631H209.79C210.745 69.5631 211.331 70.3393 211.07 71.2992V71.2886Z" fill="currentColor"/>
<path fill-rule="evenodd" clip-rule="evenodd" d="M252.33 91.9511H235.489C232.483 91.9511 231.408 90.4845 232.212 87.4973L232.938 84.8119H256.562L259.546 73.7576C261.847 65.2054 259.058 61.4202 250.464 61.4202H240.599C232.005 61.4202 227.165 65.2054 224.865 73.7576L220.947 88.2844C218.647 96.8366 221.436 100.622 230.03 100.622H252.308C252.884 98.4973 253.459 96.3619 254.034 94.2374C254.37 92.9757 253.61 91.9405 252.341 91.9405L252.33 91.9511ZM235.847 74.0057C236.65 71.0184 238.516 69.5516 241.522 69.5516H246.025C249.031 69.5516 250.105 71.0184 249.302 74.0057L248.434 77.2195H234.968L235.836 74.0057H235.847Z" fill="currentColor"/>
<path fill-rule="evenodd" clip-rule="evenodd" d="M444.855 61.4314C440.006 61.4314 434.971 65.3785 433.668 70.1993L424.977 102.434C423.674 107.255 426.583 111.202 431.432 111.202H464.607L467.578 100.18H441.841C440.624 100.18 439.887 99.188 440.212 97.9801L446.69 73.9522C447.016 72.7446 448.285 71.7524 449.502 71.7524H472.311C473.926 71.7524 475.598 70.4364 476.033 68.8404L476.608 66.6944L477.02 65.1628L478.018 61.4423H444.845L444.855 61.4314Z" fill="currentColor"/>
<path fill-rule="evenodd" clip-rule="evenodd" d="M138.735 72.4771H123.976C122.87 72.4771 122.208 71.5714 122.501 70.4712L123.51 66.7183C123.803 65.6184 124.964 64.7123 126.071 64.7123H146.19C147.654 64.7123 149.184 63.5153 149.575 62.0593L151.387 55.3188H121.828C117.412 55.3188 112.832 58.9102 111.649 63.2996L108.795 73.8792C107.612 78.2683 110.26 81.8597 114.677 81.8597H129.435C130.542 81.8597 131.203 82.7657 130.911 83.8656L129.641 88.5893C129.348 89.6892 128.187 90.5952 127.08 90.5952H106.961C105.497 90.5952 103.966 91.7922 103.576 93.2482L101.59 100.625H131.149C135.566 100.625 140.145 97.0335 141.328 92.6441L144.616 80.447C145.799 76.0576 143.151 72.4665 138.735 72.4665V72.4771Z" fill="currentColor"/>
<path fill-rule="evenodd" clip-rule="evenodd" d="M187.826 61.4311H179.079C177.81 61.4311 176.486 62.4662 176.149 63.728L175.314 66.8233L175.259 67.0066L175.194 67.2546L175.162 67.3623L175.129 67.4703L175.086 67.6536L175.053 67.7508V67.7937L175.01 67.9126L174.988 68.0094L174.967 68.0741V68.1174L174.945 68.1389V68.1712L174.815 68.635L174.673 69.142L174.522 69.6919L168.987 90.2041C168.727 91.1531 167.729 91.9405 166.774 91.9405H157.691C156.736 91.9405 156.161 91.164 156.411 90.2041L164.169 61.4202H153.112L144.409 93.7089C143.389 97.5051 145.678 100.611 149.498 100.611H170.289C174.109 100.611 178.07 97.5051 179.101 93.7089L187.804 61.4202L187.826 61.4311Z" fill="currentColor"/>
<path fill-rule="evenodd" clip-rule="evenodd" d="M285.752 69.5516H287.011C288.281 69.5516 289.604 68.5164 289.941 67.2546L290.396 65.5615L290.722 64.3536L291.514 61.4202H273.208C269.388 61.4202 265.427 64.526 264.396 68.3222L255.693 100.611H266.751L274.662 71.2774C274.922 70.3281 275.921 69.541 276.876 69.541H285.763L285.752 69.5516Z" fill="currentColor"/>
<path fill-rule="evenodd" clip-rule="evenodd" d="M296.656 61.4314C295.386 61.4314 294.063 62.4669 293.726 63.7287C290.406 76.0338 287.096 88.328 283.775 100.633H294.833L305.403 61.4314H296.656Z" fill="currentColor"/>
<path fill-rule="evenodd" clip-rule="evenodd" d="M404.594 100.18H392.812C391.595 100.18 390.857 99.188 391.183 97.9804L397.661 73.9522C397.986 72.7446 399.256 71.7524 400.472 71.7524H412.354C413.57 71.7524 414.308 72.7446 413.982 73.9522L408.273 95.1223C408.057 95.9312 408.166 96.1578 409.034 96.3735C409.838 96.5783 410.596 96.8372 411.334 97.1497C414.458 98.5195 416.954 100.935 418.865 103.534L421.198 106.694C420.46 104.688 420.364 102.305 421.045 99.7703L429.021 70.1993C429.045 70.1131 429.065 70.0269 429.098 69.9403C430.228 65.2385 427.34 61.4314 422.577 61.4314H395.826C390.977 61.4314 385.942 65.3785 384.639 70.1993L375.948 102.434C374.645 107.255 377.553 111.202 382.402 111.202H398.129C401.968 111.202 404.79 113.974 406.787 116.681L415.382 128.349H431.301L415.717 107.201C412.809 103.254 409.153 100.202 404.594 100.202V100.18Z" fill="currentColor"/>
<path fill-rule="evenodd" clip-rule="evenodd" d="M345.012 68.3331L336.309 100.622H347.366L355.277 71.288C355.537 70.339 356.536 69.5516 357.491 69.5516H367.636C368.905 69.5516 370.218 68.5164 370.567 67.2546L371.022 65.5615L371.348 64.3536L372.139 61.4202H353.834C350.014 61.4202 346.053 64.526 345.022 68.3222L345.012 68.3331Z" fill="currentColor"/>
<path d="M402.642 123.086C399.173 118.417 397.827 117.187 389.415 117.187H57.7188V109.293H74.2889L74.3324 115.624H84.9451L84.9016 108.322H82.3408L64.4466 40.2288H69.7207V27.4707V26.9315H63.7629V21H47.1929V26.9315H41.2246V40.2288H46.4984L28.6044 108.322H26V115.624H36.6127V109.293H53.2697L53.248 120.628H380.973C387.005 120.628 389.079 122.256 391.867 125.912C393.343 127.853 394.895 128.339 397.488 128.339H406.561L402.656 123.097L402.642 123.086ZM57.7188 106.155V90.0102L76.0361 106.155H57.7188ZM75.1244 94.9172L77.2079 102.855L58.4567 86.3221H72.9L75.1354 94.9172H75.1244ZM57.7188 83.0111V67.9992L70.1764 83.0111H57.7188ZM70.9684 78.8698L57.9467 63.1784H66.899L70.9684 78.8698ZM64.6094 59.8674H57.7297V47.2064L64.6094 59.8674ZM57.7297 40.3906V40.0347H60.909L63.9909 51.9193L57.7297 40.3906ZM50.4483 24.1059H60.5946V26.9315H50.4483V24.1059ZM44.5343 36.7238V30.2423H66.4434V36.7238H44.5343ZM53.248 40.0455L47.0952 51.5957L50.1011 40.0455H53.248ZM44.0677 63.1889H52.8357L39.9984 78.805L44.0677 63.1889ZM38.0343 86.3221H52.3473L33.6394 103.178L38.0343 86.3221ZM53.248 106.144H35.2021L53.2697 89.8702V106.144H53.248ZM53.248 83.0002H40.758L53.2697 67.7726V83.0002H53.248ZM53.248 59.8565H46.3465L53.248 46.9152V59.8565Z" fill="currentColor"/>
</g>
<defs>
<clipPath id="clip0_366_475">
<rect width="452" height="109" fill="white" transform="translate(26 21)"/>
</clipPath>
</defs>
</svg>
