<svg viewBox="0 0 136 33" fill="none" xmlns="http://www.w3.org/2000/svg">
<path fill-rule="evenodd" clip-rule="evenodd" d="M93.4358 12.2407H87.18C86.0307 12.2407 84.839 13.1811 84.5288 14.3303L82.4685 22.0163C82.1616 23.1656 82.8505 24.1059 83.9998 24.1059H90.2557C91.405 24.1059 92.5967 23.1656 92.9069 22.0163L94.9671 14.3303C95.274 13.1811 94.5851 12.2407 93.4358 12.2407ZM91.3984 15.225L89.8639 20.9551C89.7855 21.2424 89.4851 21.4808 89.1978 21.4808H86.465C86.1776 21.4808 86.0046 21.2457 86.0797 20.9551L87.6142 15.225C87.6926 14.9376 87.993 14.6993 88.2803 14.6993H91.0132C91.3005 14.6993 91.4735 14.9344 91.3984 15.225Z" fill="currentColor"/>
<path fill-rule="evenodd" clip-rule="evenodd" d="M57.7225 12.2407H49.7133L47.0948 22.0163L45.6777 27.3056H48.3094C48.6914 27.3056 49.0897 26.9922 49.1909 26.6102C49.4129 25.7743 49.6382 24.9417 49.8603 24.1059H54.5456C55.6949 24.1059 56.8866 23.1656 57.1968 22.0163L59.257 14.3303C59.564 13.1811 58.875 12.2407 57.7257 12.2407H57.7225ZM55.6851 15.225L54.1505 20.9551C54.0722 21.2424 53.7718 21.4808 53.4845 21.4808H50.5622L52.3776 14.7026H55.2998C55.5871 14.7026 55.7635 14.9376 55.6851 15.2282V15.225Z" fill="currentColor"/>
<path fill-rule="evenodd" clip-rule="evenodd" d="M68.0995 21.4806H63.0322C62.1278 21.4806 61.8045 21.0366 62.0462 20.1322L62.2649 19.3192H69.3729L70.2708 15.9725C70.963 13.3833 70.1239 12.2373 67.538 12.2373H64.57C61.9841 12.2373 60.5279 13.3833 59.8357 15.9725L58.657 20.3705C57.9649 22.9597 58.804 24.1057 61.3899 24.1057H68.093C68.2661 23.4625 68.4391 22.816 68.6122 22.1728C68.7134 21.7908 68.4848 21.4774 68.1028 21.4774L68.0995 21.4806ZM63.1399 16.0476C63.3816 15.1432 63.9431 14.6991 64.8476 14.6991H66.2026C67.107 14.6991 67.4302 15.1432 67.1886 16.0476L66.9274 17.0206H62.8755L63.1367 16.0476H63.1399Z" fill="currentColor"/>
<path fill-rule="evenodd" clip-rule="evenodd" d="M126.027 12.2407C124.568 12.2407 123.053 13.4357 122.661 14.8952L120.046 24.6544C119.654 26.1139 120.529 27.3089 121.988 27.3089H131.97L132.864 23.972H125.12C124.754 23.972 124.532 23.6716 124.63 23.3059L126.579 16.0314C126.677 15.6658 127.059 15.3654 127.425 15.3654H134.288C134.774 15.3654 135.277 14.967 135.408 14.4838L135.581 13.8341L135.705 13.3704L136.005 12.244H126.024L126.027 12.2407Z" fill="currentColor"/>
<path fill-rule="evenodd" clip-rule="evenodd" d="M33.9204 15.5848H29.4799C29.1469 15.5848 28.9477 15.3106 29.0359 14.9775L29.3395 13.8413C29.4277 13.5083 29.777 13.234 30.1101 13.234H36.1635C36.6042 13.234 37.0646 12.8716 37.1822 12.4308L37.7274 10.3901H28.8334C27.5046 10.3901 26.1267 11.4774 25.7708 12.8063L24.9121 16.0093C24.5562 17.3381 25.3529 18.4254 26.6818 18.4254H31.1222C31.4553 18.4254 31.6544 18.6997 31.5663 19.0327L31.1843 20.4628C31.0961 20.7958 30.7468 21.0701 30.4137 21.0701H24.3603C23.9196 21.0701 23.4592 21.4325 23.3416 21.8733L22.7441 24.1066H31.6381C32.967 24.1066 34.3448 23.0193 34.7007 21.6904L35.69 17.9977C36.0459 16.6688 35.2493 15.5816 33.9204 15.5816V15.5848Z" fill="currentColor"/>
<path fill-rule="evenodd" clip-rule="evenodd" d="M48.6912 12.2406H46.0595C45.6775 12.2406 45.2792 12.554 45.178 12.936L44.9266 13.8731L44.9102 13.9286L44.8906 14.0037L44.8809 14.0363L44.8711 14.069L44.858 14.1245L44.8482 14.1539V14.1669L44.8351 14.2029L44.8286 14.2322L44.8221 14.2518V14.2649L44.8155 14.2714V14.2812L44.7764 14.4216L44.7339 14.5751L44.6882 14.7416L43.023 20.9517C42.9447 21.239 42.6443 21.4774 42.357 21.4774H39.6241C39.3368 21.4774 39.1638 21.2423 39.2389 20.9517L41.5734 12.2373H38.2463L35.6277 22.0128C35.3208 23.1621 36.0097 24.1025 37.159 24.1025H43.4148C44.5641 24.1025 45.7559 23.1621 46.0661 22.0128L48.6846 12.2373L48.6912 12.2406Z" fill="currentColor"/>
<path fill-rule="evenodd" clip-rule="evenodd" d="M78.1555 14.6991H78.5342C78.9163 14.6991 79.3146 14.3857 79.4158 14.0037L79.5529 13.4911L79.6509 13.1254L79.8892 12.2373H74.3811C73.2318 12.2373 72.0401 13.1776 71.7299 14.3269L69.1113 24.1025H72.4384L74.8186 15.2216C74.897 14.9342 75.1974 14.6959 75.4847 14.6959H78.1588L78.1555 14.6991Z" fill="currentColor"/>
<path fill-rule="evenodd" clip-rule="evenodd" d="M81.4362 12.2407C81.0541 12.2407 80.6558 12.5542 80.5546 12.9362C79.5555 16.6616 78.5596 20.3837 77.5605 24.1091H80.8876L84.0678 12.2407H81.4362Z" fill="currentColor"/>
<path fill-rule="evenodd" clip-rule="evenodd" d="M113.913 23.972H110.368C110.002 23.972 109.78 23.6716 109.878 23.306L111.827 16.0314C111.925 15.6658 112.307 15.3654 112.673 15.3654H116.248C116.614 15.3654 116.836 15.6658 116.738 16.0314L115.02 22.4407C114.955 22.6856 114.988 22.7542 115.249 22.8195C115.491 22.8815 115.719 22.9599 115.941 23.0545C116.881 23.4692 117.632 24.2006 118.207 24.9874L118.909 25.9441C118.687 25.3368 118.658 24.6152 118.863 23.8479L121.263 14.8952C121.27 14.8691 121.276 14.843 121.286 14.8168C121.626 13.3933 120.757 12.2407 119.324 12.2407H111.275C109.816 12.2407 108.301 13.4357 107.909 14.8952L105.294 24.6544C104.902 26.1139 105.777 27.3089 107.236 27.3089H111.968C113.123 27.3089 113.972 28.148 114.573 28.9675L117.159 32.5003H121.949L117.26 26.0976C116.385 24.9026 115.285 23.9786 113.913 23.9786V23.972Z" fill="currentColor"/>
<path fill-rule="evenodd" clip-rule="evenodd" d="M95.9858 14.3302L93.3672 24.1057H96.6943L99.0745 15.2248C99.1528 14.9375 99.4532 14.6991 99.7406 14.6991H102.793C103.175 14.6991 103.57 14.3857 103.675 14.0037L103.812 13.4911L103.91 13.1254L104.148 12.2373H98.6402C97.4909 12.2373 96.2992 13.1776 95.989 14.3269L95.9858 14.3302Z" fill="currentColor"/>
<path d="M113.326 30.9069C112.282 29.4931 111.877 29.1209 109.346 29.1209H9.54372V26.7309H14.5294L14.5425 28.6475H17.7357L17.7226 26.437H16.9521L11.568 5.82157H13.1549V1.95903V1.79577H11.3623V0H6.37663V1.79577H4.58085V5.82157H6.16766L0.78361 26.437H0V28.6475H3.19321V26.7309H8.20505L8.19852 30.1625H106.806C108.621 30.1625 109.245 30.6555 110.084 31.7623C110.528 32.35 110.995 32.497 111.775 32.497H114.505L113.33 30.9102L113.326 30.9069ZM9.54372 25.7808V20.893L15.0551 25.7808H9.54372ZM14.7808 22.3786L15.4077 24.7817L9.76574 19.7764H14.1115L14.7841 22.3786H14.7808ZM9.54372 18.774V14.2291L13.292 18.774H9.54372ZM13.5303 17.5202L9.61228 12.7696H12.3059L13.5303 17.5202ZM11.617 11.7672H9.54698V7.93405L11.617 11.7672ZM9.54698 5.87055V5.7628H10.5036L11.4309 9.36088L9.54698 5.87055ZM7.35614 0.940332H10.409V1.79577H7.35614V0.940332ZM5.57669 4.76043V2.79814H12.1688V4.76043H5.57669ZM8.19852 5.76606L6.34724 9.26292L7.25166 5.76606H8.19852ZM5.4363 12.7728H8.07445L4.2119 17.5006L5.4363 12.7728ZM3.62093 19.7764H7.92752L2.29859 24.8796L3.62093 19.7764ZM8.19852 25.7775H2.76876L8.20505 20.8506V25.7775H8.19852ZM8.19852 18.7707H4.44046L8.20505 14.1605V18.7707H8.19852ZM8.19852 11.7639H6.12195L8.19852 7.8459V11.7639Z" fill="currentColor"/>
</svg>
