<svg width="504" height="160" viewBox="0 0 504 160" fill="none" xmlns="http://www.w3.org/2000/svg">
<path d="M60.4644 79.4192C60.4644 86.2239 57.9974 94.4697 47.8104 94.4697C39.6527 94.4697 35.156 88.6655 35.156 79.6992V53.0007L19 52V84.3024C19 93.6691 25.725 107.078 42.6372 107.078H48.4868C51.0733 107.078 76.7796 104.677 76.7796 83.6622V55.6826L60.4644 54.6819" fill="currentColor"/>
<path d="M115.537 57.6838L99.0625 57.0033V103.956L140.805 102.715V92.468L115.537 92.6283" fill="currentColor"/>
<path d="M142.439 69.4934L162.973 69.8937V101.996L179.169 101.716V70.0538H199.423V60.4071L142.439 58.9661" fill="currentColor"/>
<path d="M234.878 84.1032H257.998V76.3376H234.878V68.6523H259.152V60.7668H218.562V101.235L259.827 100.915V93.2695H234.878" fill="currentColor"/>
<path d="M318.681 83.3422C318.681 83.3422 327.953 81.2208 327.953 72.5747C327.953 63.9287 317.249 60.4062 313.349 60.4062C309.449 60.4062 280.322 60.8465 280.322 60.8465V101.115H296.637V85.2635H300.537C305.631 85.2635 309.092 89.2264 315.618 101.675L333.246 101.995C333.246 101.995 324.691 84.2228 318.681 83.3824M303.6 78.1387H296.677V68.1316H304.037C306.584 68.1316 311.162 69.1724 311.162 73.1351C311.162 77.098 308.017 78.1387 303.6 78.1387Z" fill="currentColor"/>
<path d="M388.839 83.3823C388.839 83.3823 398.111 81.2609 398.111 72.6149C398.111 61.6472 387.367 58.2449 383.507 58.2449C379.647 58.2449 350.518 59.2456 350.518 59.2456V102.276L366.832 102.836V85.3839H370.693C375.786 85.3839 379.448 91.1078 385.972 103.557L403.084 103.997C403.084 103.997 394.847 84.2629 388.839 83.4225M373.756 77.8586H366.832V66.6507H374.155C376.702 66.6507 381.278 68.2518 381.278 72.1746C381.278 76.0972 378.135 77.8586 373.716 77.8586" fill="currentColor"/>
<path d="M438.143 55.003L413.949 104.437L430.661 105.278L435 95.5512L459.115 96.0316L463.849 107.44L480.563 108L456.367 53.9222M438.977 86.6651L447.415 67.7719L455.374 86.9853L438.977 86.6651Z" fill="currentColor"/>
<path d="M481.394 57.0439C480.758 55.803 479.843 54.8423 478.648 54.2019C477.457 53.5214 476.263 53.2012 475.029 53.2012C473.795 53.2012 472.601 53.5214 471.407 54.2019C470.213 54.8423 469.297 55.803 468.661 57.0439C467.984 58.2847 467.666 59.5656 467.666 60.8865C467.666 62.2075 467.984 63.4883 468.622 64.6892C469.257 65.9301 470.173 66.8507 471.328 67.5312C472.482 68.2116 473.716 68.5319 474.989 68.5319C476.263 68.5319 477.496 68.2116 478.648 67.5312C479.803 66.8507 480.719 65.89 481.354 64.6892C481.992 63.4883 482.31 62.2075 482.31 60.8865C482.31 59.5656 481.992 58.2447 481.315 57.0439M480.361 64.0888C479.803 65.0895 479.048 65.89 478.092 66.4504C477.097 67.0108 476.104 67.291 475.029 67.291C473.954 67.291 472.959 67.0108 471.963 66.4504C470.97 65.89 470.213 65.0895 469.697 64.0888C469.138 63.0881 468.86 62.0073 468.86 60.9266C468.86 59.8458 469.138 58.725 469.697 57.7243C470.253 56.6836 471.01 55.8831 472.003 55.3627C472.998 54.8023 473.994 54.5221 475.029 54.5221C476.064 54.5221 477.057 54.8023 478.053 55.3627C479.048 55.9231 479.803 56.7236 480.361 57.7243C480.917 58.725 481.195 59.8458 481.195 60.9266C481.195 62.0073 480.917 63.0881 480.401 64.0888" fill="currentColor"/>
<path d="M476.302 61.8868C476.302 61.8868 475.905 61.5666 475.627 61.4465C476.302 61.4064 476.861 61.1263 477.258 60.686C477.655 60.2456 477.894 59.7253 477.894 59.0848C477.894 58.6445 477.775 58.2442 477.536 57.884C477.298 57.4837 476.94 57.2435 476.541 57.0834C476.144 56.9233 475.468 56.8433 474.513 56.8433H471.807V65.129H473.08V61.6066H473.835C474.274 61.6066 474.632 61.6867 474.87 61.8868C475.228 62.167 475.667 62.8074 476.223 63.8081L476.94 65.129H478.492L477.536 63.4879C477.059 62.7274 476.7 62.167 476.382 61.8468M474.632 60.4858H473.08V58.0041H474.552C475.188 58.0041 475.587 58.0441 475.826 58.1642C476.064 58.2442 476.223 58.4044 476.382 58.6045C476.501 58.8046 476.58 59.0048 476.58 59.2449C476.58 59.6452 476.461 59.9254 476.183 60.1656C475.905 60.4057 475.428 60.5258 474.671 60.5258" fill="currentColor"/>
</svg>
