<svg preserveAspectRatio="none" width="100%" height="100%" overflow="visible" style="display: block;" viewBox="0 0 199 24" fill="none" xmlns="http://www.w3.org/2000/svg">
<g id="Group 2341">
<path id="Vector" d="M17.745 11.7511C17.745 14.6674 16.6892 18.2013 12.3296 18.2013C8.83845 18.2013 6.91409 15.7138 6.91409 11.8711V0.428871L0 0V13.8439C0 17.8582 2.87803 23.605 10.1157 23.605H12.6191C13.726 23.605 24.7272 22.5758 24.7272 13.5695V1.57824L17.745 1.14937" fill="var(--fill-0, currentColor)"/>
<path id="Vector_2" d="M41.3139 2.43589L34.2636 2.14426V22.2669L52.1278 21.7351V17.3434L41.3139 17.4121" fill="var(--fill-0, currentColor)"/>
<path id="Vector_3" d="M52.8265 7.49716L61.6139 7.66871V21.4269L68.545 21.3068V7.73733H77.2132V3.60302L52.8265 2.98544" fill="var(--fill-0, currentColor)"/>
<path id="Vector_4" d="M92.3866 13.7585H102.281V10.4304H92.3866V7.13671H102.775V3.75721H85.4044V21.1007L103.064 20.9635V17.6869H92.3866" fill="var(--fill-0, currentColor)"/>
<path id="Vector_5" d="M128.251 13.4324C128.251 13.4324 132.219 12.5232 132.219 8.81776C132.219 5.11232 127.638 3.60269 125.969 3.60269C124.3 3.60269 111.835 3.79139 111.835 3.79139V21.0491H118.817V14.2558H120.486C122.666 14.2558 124.147 15.9542 126.94 21.2893L134.484 21.4266C134.484 21.4266 130.823 13.8098 128.251 13.4496M121.797 11.2023H118.834V6.91357H121.984C123.074 6.91357 125.033 7.3596 125.033 9.05793C125.033 10.7563 123.687 11.2023 121.797 11.2023Z" fill="var(--fill-0, currentColor)"/>
<path id="Vector_6" d="M158.275 13.4496C158.275 13.4496 162.243 12.5404 162.243 8.83498C162.243 4.13456 157.645 2.6764 155.993 2.6764C154.341 2.6764 141.875 3.10527 141.875 3.10527V21.5467L148.857 21.7869V14.3074H150.509C152.689 14.3074 154.256 16.7605 157.048 22.0957L164.371 22.2844C164.371 22.2844 160.846 13.827 158.275 13.4668M151.82 11.0823H148.857V6.27891H151.991C153.081 6.27891 155.039 6.9651 155.039 8.64628C155.039 10.3274 153.694 11.0823 151.803 11.0823" fill="var(--fill-0, currentColor)"/>
<path id="Vector_7" d="M179.375 1.28701L169.021 22.4732L176.173 22.8335L178.03 18.6648L188.35 18.8707L190.376 23.7598L197.529 24L187.174 0.823828M179.732 14.8565L183.343 6.7594L186.749 14.9937L179.732 14.8565Z" fill="var(--fill-0, currentColor)"/>
<path id="Vector_8" d="M197.885 2.16165C197.613 1.62985 197.221 1.21813 196.71 0.943653C196.2 0.652021 195.689 0.514783 195.161 0.514783C194.633 0.514783 194.122 0.652021 193.611 0.943653C193.1 1.21813 192.708 1.62985 192.436 2.16165C192.146 2.69345 192.01 3.2424 192.01 3.80851C192.01 4.37462 192.146 4.92357 192.419 5.43822C192.691 5.97002 193.083 6.36458 193.577 6.65621C194.071 6.94784 194.599 7.08508 195.144 7.08508C195.689 7.08508 196.217 6.94784 196.71 6.65621C197.204 6.36458 197.596 5.95286 197.868 5.43822C198.141 4.92357 198.277 4.37462 198.277 3.80851C198.277 3.2424 198.141 2.67629 197.851 2.16165M197.443 5.1809C197.204 5.60977 196.881 5.95286 196.472 6.19303C196.046 6.4332 195.621 6.55328 195.161 6.55328C194.701 6.55328 194.275 6.4332 193.849 6.19303C193.424 5.95286 193.1 5.60977 192.879 5.1809C192.64 4.75203 192.521 4.28885 192.521 3.82566C192.521 3.36248 192.64 2.88215 192.879 2.45328C193.117 2.00725 193.441 1.66416 193.866 1.44114C194.292 1.20098 194.718 1.08089 195.161 1.08089C195.604 1.08089 196.029 1.20098 196.455 1.44114C196.881 1.68131 197.204 2.02441 197.443 2.45328C197.681 2.88215 197.8 3.36248 197.8 3.82566C197.8 4.28885 197.681 4.75203 197.46 5.1809" fill="var(--fill-0, currentColor)"/>
<path id="Vector_9" d="M195.706 4.23719C195.706 4.23719 195.536 4.09995 195.417 4.04849C195.706 4.03133 195.945 3.91125 196.115 3.72255C196.285 3.53384 196.387 3.31083 196.387 3.03635C196.387 2.84765 196.336 2.6761 196.234 2.52171C196.132 2.35016 195.979 2.24723 195.808 2.17861C195.638 2.10999 195.349 2.07568 194.94 2.07568H193.782V5.62673H194.327V4.11711H194.65C194.838 4.11711 194.991 4.15142 195.093 4.23719C195.246 4.35728 195.434 4.63175 195.672 5.06062L195.979 5.62673H196.643L196.234 4.92338C196.03 4.59744 195.876 4.35728 195.74 4.22004M194.991 3.63677H194.327V2.57317H194.957C195.229 2.57317 195.4 2.59033 195.502 2.64179C195.604 2.6761 195.672 2.74472 195.74 2.8305C195.791 2.91627 195.825 3.00204 195.825 3.10497C195.825 3.27652 195.774 3.39661 195.655 3.49953C195.536 3.60246 195.332 3.65393 195.008 3.65393" fill="var(--fill-0, currentColor)"/>
</g>
</svg>
