<?xml version="1.0" encoding="UTF-8"?>
<svg version="1.1" xmlns="http://www.w3.org/2000/svg" width="109.10747" height="29.964666" viewBox="0 0 109.10747 29.964666">
  <defs>
    <clipPath id="clipPath2" clipPathUnits="userSpaceOnUse">
      <path d="M 0,22.473 H 81.831 V 0 H 0 Z" transform="translate(-20.763901,-13.2281)"/>
    </clipPath>
    <clipPath id="clipPath4" clipPathUnits="userSpaceOnUse">
      <path d="M 0,22.473 H 81.831 V 0 H 0 Z" transform="translate(-25.301901,-12.323201)"/>
    </clipPath>
    <clipPath id="clipPath6" clipPathUnits="userSpaceOnUse">
      <path d="M 0,22.473 H 81.831 V 0 H 0 Z" transform="translate(-30.933201,-14.2419)"/>
    </clipPath>
    <clipPath id="clipPath8" clipPathUnits="userSpaceOnUse">
      <path d="M 0,22.473 H 81.831 V 0 H 0 Z" transform="translate(-35.413601,-14.2419)"/>
    </clipPath>
    <clipPath id="clipPath10" clipPathUnits="userSpaceOnUse">
      <path d="M 0,22.473 H 81.831 V 0 H 0 Z" transform="translate(-41.225901,-11.3345)"/>
    </clipPath>
    <clipPath id="clipPath12" clipPathUnits="userSpaceOnUse">
      <path d="M 0,22.473 H 81.831 V 0 H 0 Z" transform="translate(-43.519401,-13.337)"/>
    </clipPath>
    <clipPath id="clipPath14" clipPathUnits="userSpaceOnUse">
      <path d="M 0,22.473 H 81.831 V 0 H 0 Z" transform="translate(-46.856901,-11.619401)"/>
    </clipPath>
    <clipPath id="clipPath16" clipPathUnits="userSpaceOnUse">
      <path d="M 0,22.473 H 81.831 V 0 H 0 Z" transform="translate(-55.571401,-12.784001)"/>
    </clipPath>
    <clipPath id="clipPath18" clipPathUnits="userSpaceOnUse">
      <path d="M 0,22.473 H 81.831 V 0 H 0 Z" transform="translate(-62.575802,-10.0023)"/>
    </clipPath>
    <clipPath id="clipPath20" clipPathUnits="userSpaceOnUse">
      <path d="M 0,22.473 H 81.831 V 0 H 0 Z"/>
    </clipPath>
    <clipPath id="clipPath22" clipPathUnits="userSpaceOnUse">
      <path d="M 0,22.473 H 81.831 V 0 H 0 Z" transform="translate(-70.295102,-15.5909)"/>
    </clipPath>
    <clipPath id="clipPath24" clipPathUnits="userSpaceOnUse">
      <path d="M 0,22.473 H 81.831 V 0 H 0 Z" transform="translate(-73.525902,-14.2419)"/>
    </clipPath>
    <clipPath id="clipPath26" clipPathUnits="userSpaceOnUse">
      <path d="M 0,22.473 H 81.831 V 0 H 0 Z"/>
    </clipPath>
    <clipPath id="clipPath28" clipPathUnits="userSpaceOnUse">
      <path d="M 0,22.473 H 81.831 V 0 H 0 Z" transform="translate(-5.4496001,-8.9211)"/>
    </clipPath>
    <clipPath id="clipPath30" clipPathUnits="userSpaceOnUse">
      <path d="M 0,22.473 H 81.831 V 0 H 0 Z" transform="translate(-9.2817002,-10.0023)"/>
    </clipPath>
  </defs>
  <g>
    <path d="m 0,0 h 0.567 c 0.51,0 0.74,0.168 0.74,0.553 0,0.352 -0.222,0.528 -0.69,0.528 H 0 Z m 0.025,-1.198 v -2.028 h -1.702 v 5.589 h 2.343 c 0.847,0 1.315,-0.126 1.71,-0.444 C 2.762,1.6 2.984,1.114 2.984,0.578 c 0,-1.072 -0.797,-1.776 -2.006,-1.776 z" fill="#ffffff" fill-rule="nonzero" transform="matrix(1.3333333,0,0,-1.3333333,27.6852,12.3272)" clip-path="url(#clipPath2)"/>
    <path d="M 0,0 H 0.888 L 0.444,1.617 Z m 1.488,-2.321 -0.304,1.106 h -1.472 l -0.329,-1.106 h -1.364 l 1.693,5.589 h 1.776 l 1.718,-5.589 z" fill="#ffffff" fill-rule="nonzero" transform="matrix(1.3333333,0,0,-1.3333333,33.735867,13.533733)" clip-path="url(#clipPath4)"/>
    <path d="M 0,0 V -4.24 H -1.595 V 0 H -2.729 V 1.349 H 1.135 L 1.135,0 Z" fill="#ffffff" fill-rule="nonzero" transform="matrix(1.3333333,0,0,-1.3333333,41.244267,10.975467)" clip-path="url(#clipPath6)"/>
    <path d="M 0,0 V -4.24 H -1.595 V 0 H -2.729 V 1.349 H 1.135 L 1.135,0 Z" fill="#ffffff" fill-rule="nonzero" transform="matrix(1.3333333,0,0,-1.3333333,47.218133,10.975467)" clip-path="url(#clipPath8)"/>
    <path d="M 0,0 V -1.332 H -4.119 V 4.256 H 0 V 2.966 H -2.466 V 2.153 h 1.997 V 0.913 H -2.466 V 0 Z" fill="#ffffff" fill-rule="nonzero" transform="matrix(1.3333333,0,0,-1.3333333,54.967867,14.852)" clip-path="url(#clipPath10)"/>
    <path d="m 0,0 h 0.715 c 0.444,0 0.699,0.193 0.699,0.528 0,0.335 -0.238,0.536 -0.641,0.536 H 0 Z M 3.19,-3.335 H 1.324 L 0.526,-1.198 H 0 v -2.137 h -1.702 v 5.589 h 2.878 c 1.249,0 1.989,-0.637 1.989,-1.693 0,-0.578 -0.222,-1.022 -0.666,-1.29 C 2.417,-0.788 2.318,-0.838 2.203,-0.896 Z" fill="#ffffff" fill-rule="nonzero" transform="matrix(1.3333333,0,0,-1.3333333,58.025867,12.182)" clip-path="url(#clipPath12)"/>
    <path d="m 0,0 1.562,0.285 c 0.173,-0.494 0.452,-0.679 1.011,-0.679 0.411,0 0.633,0.126 0.633,0.344 C 3.206,0.201 3.05,0.31 2.54,0.411 1.858,0.545 1.406,0.687 1.044,0.88 0.559,1.139 0.279,1.634 0.279,2.212 c 0,1.114 0.897,1.843 2.261,1.843 1.127,0 1.875,-0.461 2.228,-1.374 L 3.379,2.254 C 3.215,2.648 2.951,2.807 2.499,2.807 2.146,2.807 1.948,2.681 1.948,2.463 1.948,2.245 2.072,2.162 2.557,2.061 2.91,1.986 3.182,1.919 3.363,1.877 3.65,1.81 3.913,1.709 4.144,1.584 4.629,1.307 4.916,0.788 4.916,0.193 c 0,-1.14 -0.978,-1.894 -2.458,-1.894 -0.797,0 -1.439,0.226 -1.891,0.679 C 0.255,-0.721 0.148,-0.519 0,0" fill="#ffffff" fill-rule="nonzero" transform="matrix(1.3333333,0,0,-1.3333333,62.475867,14.472133)" clip-path="url(#clipPath14)"/>
    <path d="m 0,0 v 0.159 c 0,0.997 -0.247,1.466 -0.773,1.466 -0.542,0 -0.83,-0.578 -0.83,-1.658 0,-1.048 0.263,-1.559 0.806,-1.559 0.328,0 0.575,0.201 0.674,0.528 C -0.058,-0.829 -0.016,-0.461 0,0 m 1.817,0.067 c 0,-1.759 -1.044,-2.932 -2.606,-2.932 -1.562,0 -2.615,1.156 -2.615,2.873 0,1.743 1.044,2.883 2.631,2.883 1.57,0 2.59,-1.115 2.59,-2.824" fill="#ffffff" fill-rule="nonzero" transform="matrix(1.3333333,0,0,-1.3333333,74.0952,12.919333)" clip-path="url(#clipPath16)"/>
    <path d="M 0,0 H -1.373 L -2.869,2.463 -3.025,2.757 -3.198,3.075 C -3.264,3.184 -3.305,3.276 -3.453,3.62 L -3.404,3.418 C -3.346,3.159 -3.321,2.933 -3.321,2.706 V 0 H -4.686 V 5.589 H -3.1 l 1.283,-2.053 c 0.23,-0.377 0.444,-0.771 0.575,-1.073 -0.09,0.52 -0.131,1.014 -0.131,1.467 V 5.589 H 0 Z" fill="#ffffff" fill-rule="nonzero" transform="matrix(1.3333333,0,0,-1.3333333,83.4344,16.628267)" clip-path="url(#clipPath18)"/>
    <path d="m 65.165,11.469 h -2.031 v 1.282 h 2.031 z" fill="#ffffff" fill-rule="nonzero" transform="matrix(1.3333333,0,0,-1.3333333,0,29.964667)" clip-path="url(#clipPath20)"/>
    <path d="m 0,0 v -3.703 c 0,-0.645 -0.156,-1.081 -0.493,-1.4 -0.411,-0.393 -0.962,-0.569 -1.719,-0.569 -0.772,0 -1.422,0.201 -1.808,0.561 -0.337,0.31 -0.485,0.712 -0.485,1.315 V 0 h 1.71 v -3.594 c 0,-0.537 0.213,-0.771 0.699,-0.771 0.526,0 0.772,0.259 0.772,0.779 V -3.276 0 Z" fill="#ffffff" fill-rule="nonzero" transform="matrix(1.3333333,0,0,-1.3333333,93.7268,9.1768)" clip-path="url(#clipPath22)"/>
    <path d="M 0,0 V -4.24 H -1.595 V 0 H -2.729 V 1.349 H 1.135 L 1.135,0 Z" fill="#ffffff" fill-rule="nonzero" transform="matrix(1.3333333,0,0,-1.3333333,98.034533,10.975467)" clip-path="url(#clipPath24)"/>
    <path d="m 76.831,10.002 h -1.694 v 5.589 h 1.694 z" fill="#ffffff" fill-rule="nonzero" transform="matrix(1.3333333,0,0,-1.3333333,0,29.964667)" clip-path="url(#clipPath26)"/>
    <path d="m 0,0 c 0.92,-2.297 3.163,-3.921 5.788,-3.921 2.625,0 4.868,1.624 5.788,3.921 z" fill="#ffffff" fill-rule="nonzero" transform="matrix(1.3333333,0,0,-1.3333333,7.2661333,18.069867)" clip-path="url(#clipPath28)"/>
    <path d="M 0,0 1.396,5.834 1.399,5.833 V 5.834 H 2.522 V 5.81 L 3.912,0 H 8.07 c 0.08,0.399 0.124,0.811 0.124,1.234 0,3.445 -2.793,6.237 -6.238,6.237 -3.445,0 -6.238,-2.792 -6.238,-6.237 0,-0.423 0.043,-0.835 0.124,-1.234 z" fill="#ffffff" fill-rule="nonzero" transform="matrix(1.3333333,0,0,-1.3333333,12.3756,16.628267)" clip-path="url(#clipPath30)"/>
  </g>
</svg>
